<svg width="303" height="144" viewBox="0 0 303 144" fill="none" xmlns="http://www.w3.org/2000/svg">
<path d="M79.1758 0.891867C79.1758 0.891867 40.0978 33.1746 37.7531 57.9018C35.4085 82.6289 115.127 0.891867 115.127 0.891867C107.121 28.1299 76.5819 83.3165 18.1792 88.0129C19.2128 89.6526 27.3762 94.3056 51.7609 99.8006C76.1456 105.295 80.1978 131.396 79.1758 143.76C68.7349 131.854 41.6127 110.378 16.6509 119.72C-8.31089 129.061 0.224884 96.5952 7.613 79.1946C0.696342 64.7982 9.25077 36.3862 79.1758 0.891867Z" fill="#60a5fa"/>
<path d="M121.176 143.76C88.3504 140.326 147 -8 146 0.891867C145 9.78373 123.532 67.5179 133.692 71.6391C140.055 74.2198 164.635 49.5446 176 28.5C186.5 3 178.229 1.45255 180.5 0.891867C183.084 0.25378 200.5 28.5 187.5 57.9018C162.696 114 194.496 146.312 180.575 141.872C156.346 134.144 165.725 72.3259 168.851 54.4674C171.977 36.6089 132.899 86.7501 135.244 99.8006C137.589 112.851 154.002 147.194 121.176 143.76Z" fill="#60a5fa"/>
<path d="M211.056 0.891867C235.5 64 187.5 74.5589 207.148 141.872C235.5 150.5 236.303 47.7423 211.293 1.03544C298.793 7.84203 302.498 45.0236 282.178 74.5589C259.26 107.868 286.606 133.858 297.809 140.498C305.103 101.118 306.719 24.555 289.212 14.1146C271.705 3.67428 232.679 -0.653378 211.056 0.891867Z" fill="#60a5fa"/>
</svg>
