<svg width="48" height="44" viewBox="0 0 48 44" fill="none" xmlns="http://www.w3.org/2000/svg">
<path d="M20 3.66666L18 5.49999H10C8.8 5.49999 8 6.23332 8 7.33332C8 8.43332 8.8 9.16666 10 9.16666H14H34H38C39.2 9.16666 40 8.43332 40 7.33332C40 6.23332 39.2 5.49999 38 5.49999H30L28 3.66666H20ZM10 12.8333V36.6667C10 38.6833 11.8 40.3333 14 40.3333H34C36.2 40.3333 38 38.6833 38 36.6667V12.8333H10ZM18 16.5C19.2 16.5 20 17.2333 20 18.3333V34.8333C20 35.9333 19.2 36.6667 18 36.6667C16.8 36.6667 16 35.9333 16 34.8333V18.3333C16 17.2333 16.8 16.5 18 16.5ZM30 16.5C31.2 16.5 32 17.2333 32 18.3333V34.8333C32 35.9333 31.2 36.6667 30 36.6667C28.8 36.6667 28 35.9333 28 34.8333V18.3333C28 17.2333 28.8 16.5 30 16.5Z" fill="#565656"/>
</svg>
